<?xml version="1.0" standalone="no"?>
<!DOCTYPE svg PUBLIC "-//W3C//DTD SVG 20010904//EN"
 "http://www.w3.org/TR/2001/REC-SVG-20010904/DTD/svg10.dtd">
<svg version="1.0" xmlns="http://www.w3.org/2000/svg"
 width="512.000000pt" height="512.000000pt" viewBox="0 0 512.000000 512.000000"
 preserveAspectRatio="xMidYMid meet">
<metadata>
Created by potrace 1.14, written by Peter Selinger 2001-2017
</metadata>
<g transform="translate(0.000000,512.000000) scale(0.100000,-0.100000)"
fill="#000000" stroke="none">
<path d="M2443 4925 c-77 -21 -129 -51 -186 -103 -97 -91 -140 -192 -139 -325
1 -81 9 -111 49 -194 l36 -71 -34 -43 c-19 -24 -40 -50 -47 -58 -8 -8 -31 -37
-52 -65 -35 -46 -343 -440 -373 -476 -7 -8 -70 -89 -141 -180 -72 -91 -162
-205 -201 -255 -39 -49 -83 -106 -98 -126 l-27 -36 -88 0 c-140 1 -250 -46
-337 -146 -100 -115 -133 -255 -93 -402 55 -200 234 -328 444 -318 l73 3 273
-348 c150 -191 278 -354 285 -362 7 -8 104 -132 216 -275 l204 -259 -28 -46
c-80 -131 -81 -307 -3 -440 142 -242 474 -292 670 -101 145 141 179 328 92
514 l-22 48 360 360 361 361 44 -30 c96 -65 242 -91 349 -62 118 31 231 124
284 233 104 213 15 472 -201 581 -133 67 -311 51 -444 -41 l-51 -35 -159 159
-158 159 167 167 167 166 43 -29 c174 -117 402 -96 551 51 174 171 172 452 -4
618 -152 144 -371 164 -543 50 -24 -16 -44 -29 -46 -29 -2 0 -165 162 -363
359 -346 345 -359 360 -347 383 134 239 30 531 -226 632 -61 24 -191 30 -257
11z m197 -70 c82 -18 180 -92 225 -169 70 -121 61 -285 -22 -393 -49 -64 -67
-79 -143 -116 -58 -28 -74 -32 -150 -31 -70 0 -95 4 -142 26 -81 38 -142 98
-183 182 -32 66 -34 77 -32 156 2 67 8 97 28 140 76 163 241 244 419 205z
m583 -1011 c197 -196 357 -360 357 -364 0 -4 -8 -18 -18 -31 -67 -88 -91 -262
-51 -376 11 -32 31 -75 44 -95 14 -21 25 -41 25 -44 0 -4 -74 -81 -165 -172
l-165 -165 -174 174 -175 173 29 51 c33 58 48 108 54 185 17 203 -130 404
-331 451 -278 65 -540 -148 -536 -437 l1 -41 -276 -154 c-152 -85 -293 -162
-313 -173 l-36 -18 -55 55 c-30 30 -73 64 -97 76 -27 14 -39 26 -34 34 9 16
922 1178 938 1196 11 11 18 9 47 -12 159 -119 372 -116 528 7 25 19 45 35 46
35 1 1 161 -159 357 -355z m-565 -289 c147 -45 255 -190 254 -345 -1 -273
-283 -446 -525 -323 -292 148 -245 581 73 673 40 12 151 9 198 -5z m1406 -13
c145 -65 229 -200 220 -355 -4 -73 -42 -167 -88 -218 -144 -161 -398 -161
-544 0 -117 130 -118 342 -2 474 42 49 80 75 149 104 73 31 190 28 265 -5z
m-1838 -622 c154 -170 426 -195 593 -54 l33 27 173 -173 174 -174 -163 -163
c-90 -90 -166 -163 -171 -163 -4 0 -23 13 -41 30 -154 134 -405 126 -565 -18
-46 -41 -111 -136 -116 -170 -1 -8 -4 -16 -6 -19 -3 -3 -141 70 -307 162 -295
164 -301 168 -294 194 34 122 36 193 8 291 -9 30 -12 56 -7 58 4 1 140 76 302
166 l294 164 28 -58 c15 -32 44 -77 65 -100z m-941 -35 c68 -31 141 -103 173
-173 23 -49 26 -71 27 -152 0 -82 -4 -103 -27 -152 -100 -215 -373 -276 -560
-125 -197 158 -163 477 64 595 108 56 210 59 323 7z m2129 -554 l158 -159 -25
-43 c-42 -73 -60 -152 -55 -243 4 -71 10 -93 47 -170 l42 -88 -355 -354 -356
-355 -54 41 c-153 116 -375 117 -524 4 -18 -14 -35 -24 -36 -23 -2 2 -139 177
-306 389 -166 212 -311 397 -323 412 -12 15 -65 82 -117 149 -52 67 -120 154
-151 193 l-57 71 59 38 c32 21 74 56 93 78 l34 41 144 -80 c78 -44 166 -92
193 -107 28 -15 95 -53 150 -84 55 -31 109 -60 120 -66 15 -8 20 -22 22 -60 5
-130 45 -226 127 -308 243 -244 652 -125 733 213 19 82 4 199 -36 280 l-27 55
165 168 c91 92 168 167 171 167 3 0 77 -71 164 -159z m-789 -65 c123 -22 240
-133 275 -261 75 -275 -191 -526 -460 -435 -108 36 -180 104 -226 213 -33 75
-29 199 8 278 71 154 233 236 403 205z m1428 -16 c160 -61 265 -249 226 -405
-5 -22 -11 -47 -14 -57 -16 -68 -96 -155 -181 -199 -63 -31 -75 -34 -158 -34
-78 0 -99 4 -148 27 -233 109 -289 407 -109 585 102 101 251 133 384 83z
m-1373 -1295 c40 -17 95 -52 126 -80 60 -57 104 -161 106 -251 2 -102 -27
-177 -95 -251 -173 -188 -476 -145 -589 85 -30 60 -33 75 -33 157 0 76 4 98
26 146 48 103 134 176 237 204 63 17 166 12 222 -10z"/>
<path d="M2495 4775 c-70 -16 -107 -37 -152 -89 -73 -83 -90 -205 -42 -301
102 -205 384 -212 495 -13 25 47 29 63 29 133 -1 61 -6 89 -22 120 -61 116
-188 178 -308 150z"/>
<path d="M2472 3475 c-115 -35 -202 -151 -202 -271 0 -101 89 -225 185 -258
193 -65 390 85 372 284 -6 75 -31 125 -88 181 -68 67 -174 92 -267 64z"/>
<path d="M3862 3480 c-123 -25 -215 -142 -214 -270 0 -109 50 -193 144 -246
46 -25 63 -29 133 -29 63 0 89 5 121 22 205 109 207 395 3 499 -55 27 -125 36
-187 24z"/>
<path d="M1051 2828 c-104 -29 -186 -130 -198 -243 -11 -110 46 -214 148 -270
110 -60 262 -30 341 66 146 179 31 445 -197 454 -33 1 -75 -2 -94 -7z"/>
<path d="M2454 2174 c-99 -35 -174 -140 -179 -249 -11 -255 293 -387 474 -206
49 49 71 98 78 173 8 83 -18 150 -81 213 -79 80 -189 105 -292 69z"/>
<path d="M3839 2177 c-124 -47 -191 -139 -191 -267 -1 -108 60 -203 161 -251
68 -33 169 -32 237 3 77 40 132 110 149 188 27 124 -35 254 -149 312 -51 26
-156 34 -207 15z"/>
<path d="M2482 884 c-128 -33 -213 -147 -207 -279 4 -74 24 -124 76 -180 131
-142 370 -103 453 75 15 33 21 65 21 120 0 65 -4 82 -29 128 -64 115 -188 168
-314 136z"/>
<path d="M4871 3416 l-22 -23 65 -69 c36 -38 66 -72 66 -76 0 -5 -103 -8 -228
-8 l-229 0 1 -32 1 -33 229 -5 c208 -5 228 -6 215 -21 -8 -8 -38 -41 -68 -71
l-54 -56 25 -26 24 -27 66 68 c37 37 87 90 112 117 l46 50 -23 25 c-13 14 -44
49 -69 76 -25 28 -63 69 -84 93 -20 23 -40 42 -44 42 -4 0 -17 -11 -29 -24z"/>
<path d="M351 2779 c-23 -19 -24 -22 -10 -44 8 -13 38 -48 67 -78 28 -31 52
-57 52 -59 0 -1 -103 -3 -230 -3 l-230 1 0 -36 0 -36 225 0 c124 1 225 -2 225
-5 0 -4 -27 -35 -60 -70 -33 -35 -60 -68 -60 -73 0 -7 38 -46 46 -46 9 0 209
220 209 231 0 7 -59 76 -157 181 l-53 57 -24 -20z"/>
<path d="M4875 2124 l-28 -24 38 -42 c21 -24 41 -45 44 -48 3 -3 18 -19 33
-35 l27 -30 -222 0 c-122 1 -227 0 -233 -2 -9 -3 -11 -24 -5 -65 1 -4 102 -9
225 -10 l225 -3 -65 -70 -64 -69 25 -26 26 -25 108 115 c122 129 119 113 39
198 -24 26 -67 72 -95 103 l-51 57 -27 -24z"/>
</g>
</svg>
